<?xml version="1.0" encoding="UTF-8" standalone="no"?><svg xmlns="http://www.w3.org/2000/svg" version="1.2" viewBox="0 0 335.625 112.625"><g fill="#287d91"><path d="M57.777 40.262c9.72-7.895 11.192-22.176 3.297-31.89C56.594 2.862 50.066.003 43.48 0L22.54.004A22.553 22.553 0 0 0 8.378 5.078C2.867 9.555.012 16.09.012 22.68l-.004-.004v31.437s4.844-7.984 17.265-8.8v.004h4.516c.633.027 1.27.027 1.902 0H42.59a22.556 22.556 0 0 0 15.187-5.055M64.297 97.355c10.715-8.707 12.34-24.453 3.633-35.167-4.938-6.07-12.137-9.223-19.399-9.227l-23.691.004a24.89 24.89 0 0 0-15.61 5.594C3.152 63.496.004 70.703 0 77.965v34.66s5.336-8.8 19.035-9.703v.008h4.98c.696.027 1.395.027 2.094 0h21.442a24.905 24.905 0 0 0 16.746-5.574M110.355 83.46c2.649.68 7.141 1.243 11.844 1.243 10.739 0 14.524-5.64 14.524-18.3 0-12.798-3.785-18.45-14.168-18.45-2.88 0-7.508.82-12.2 2.3zm-19.48-65.366c0-1.957 1.492-3.465 3.457-3.465h12.566c1.954 0 3.457 1.508 3.457 3.465v19.144c4.692-1.511 9.32-2.886 16.235-2.886 17.976 0 30.215 10.824 30.215 32.05 0 21.082-12.125 31.91-35.75 31.91-10.942 0-24.2-2.874-30.18-6.332V18.094M170.285 97.848c-1.969 0-3.472-1.48-3.472-3.457V41.043c0-1.977 1.503-3.469 3.472-3.469h12.563c1.957 0 3.445 1.492 3.445 3.469v53.348c0 1.976-1.488 3.457-3.445 3.457zm-3.601-76.762c0-4.027 2.328-6.457 6.363-6.457h7.039c4.012 0 6.195 2.43 6.195 6.457v4.277c0 4.035-2.183 6.438-6.195 6.438h-7.04c-4.034 0-6.362-2.403-6.362-6.438v-4.277M220.36 98.11c-16.11 0-24.169-8.055-24.169-25.36V18.094c0-1.957 1.473-3.465 3.446-3.465h12.562c1.969 0 3.469 1.508 3.469 3.465v20.12h16.3c1.997 0 3.473 1.509 3.473 3.458v7.754c0 1.953-1.476 3.449-3.472 3.449h-16.301V72.75c0 7.848 4.012 12 9.914 12 2.965 0 5.176-.695 7.723-.695h2.054c1.97 0 3.457 1.496 3.457 3.465v5.984c0 1.726-1.488 3.09-3.457 3.457-3.468.7-9.777 1.148-15 1.148M261.754 60.203h25.394c-.343-8.637-4.37-13.262-12.66-13.262-8.031 0-12.293 4.625-12.734 13.262m.098 11.883c.793 9.223 4.812 13.273 13.996 13.273 4.699 0 8.84-1.402 10.746-3.824 1.457-1.847 3.457-2.98 6.246-2.98h8.18c1.921 0 3.355 1.48 3.355 3.441 0 11.984-11.965 16.133-29.887 16.133-19.898 0-31.86-11.082-31.86-31.91 0-20.746 12.083-32.047 31.86-32.047 19.93 0 31.895 10.96 31.895 31.226v3.243c0 1.953-1.434 3.445-3.344 3.445h-41.187M319.629 98.016c-1.98 0-3.469-1.48-3.469-3.457V18.117c0-1.957 1.488-3.465 3.469-3.465h12.555c1.93 0 3.441 1.508 3.441 3.465V94.56c0 1.976-1.512 3.457-3.441 3.457h-12.555"/></g></svg>